<svg id="visual" viewBox="0 0 960 540" width="960" height="540" xmlns="http://www.w3.org/2000/svg" xmlns:xlink="http://www.w3.org/1999/xlink" version="1.1"><rect x="0" y="0" width="960" height="540" fill="#E6E6E6"></rect><defs><linearGradient id="grad1_0" x1="43.8%" y1="0%" x2="100%" y2="100%"><stop offset="14.444444444444446%" stop-color="#e6e6e6" stop-opacity="1"></stop><stop offset="85.55555555555554%" stop-color="#e6e6e6" stop-opacity="1"></stop></linearGradient></defs><defs><linearGradient id="grad2_0" x1="0%" y1="0%" x2="56.3%" y2="100%"><stop offset="14.444444444444446%" stop-color="#e6e6e6" stop-opacity="1"></stop><stop offset="85.55555555555554%" stop-color="#e6e6e6" stop-opacity="1"></stop></linearGradient></defs><g transform="translate(960, 0)"><path d="M0 243C-33.6 240.8 -67.1 238.5 -92.6 223.6C-118.1 208.6 -135.5 180.9 -158.4 158.4C-181.2 135.9 -209.5 118.5 -224.5 93C-239.5 67.5 -241.3 33.7 -243 0L0 0Z" fill="#0c0c0c"></path></g><g transform="translate(0, 540)"><path d="M0 -243C31.9 -239.5 63.8 -236.1 93 -224.5C122.2 -212.9 148.8 -193.2 169.7 -169.7C190.6 -146.2 205.8 -118.9 217.1 -89.9C228.4 -61 235.7 -30.5 243 0L0 0Z" fill="#0c0c0c"></path></g></svg>