<svg id="visual" viewBox="0 0 900 600" width="900" height="600" xmlns="http://www.w3.org/2000/svg" xmlns:xlink="http://www.w3.org/1999/xlink" version="1.1"><rect x="0" y="0" width="900" height="600" fill="#f5f5f5"></rect><defs><linearGradient id="grad1_0" x1="33.3%" y1="0%" x2="100%" y2="100%"><stop offset="20%" stop-color="#f5f5f5" stop-opacity="1"></stop><stop offset="80%" stop-color="#f5f5f5" stop-opacity="1"></stop></linearGradient></defs><defs><linearGradient id="grad2_0" x1="0%" y1="0%" x2="66.7%" y2="100%"><stop offset="20%" stop-color="#f5f5f5" stop-opacity="1"></stop><stop offset="80%" stop-color="#f5f5f5" stop-opacity="1"></stop></linearGradient></defs><g transform="translate(900, 0)"><path d="M0 189.3C-26.4 188.3 -52.9 187.4 -72.4 174.9C-92 162.4 -104.6 138.4 -119.5 119.5C-134.4 100.6 -151.5 86.8 -163.5 67.7C-175.5 48.7 -182.4 24.3 -189.3 0L0 0Z" fill="#33863C"></path></g><g transform="translate(0, 600)"><path d="M0 -189.3C21.2 -176.9 42.4 -164.6 64.7 -156.1C87 -147.7 110.4 -143.1 130.1 -130.1C149.8 -117.1 165.6 -95.5 174.9 -72.4C184.1 -49.3 186.7 -24.7 189.3 0L0 0Z" fill="#33863C"></path></g></svg>