<svg id="visual" viewBox="0 0 900 600" width="900" height="600" xmlns="http://www.w3.org/2000/svg" xmlns:xlink="http://www.w3.org/1999/xlink" version="1.1"><rect x="0" y="0" width="900" height="600" fill="#6d4a30"></rect><defs><linearGradient id="grad1_0" x1="33.3%" y1="0%" x2="100%" y2="100%"><stop offset="20%" stop-color="#6d4a30" stop-opacity="1"></stop><stop offset="80%" stop-color="#6d4a30" stop-opacity="1"></stop></linearGradient></defs><defs><linearGradient id="grad2_0" x1="0%" y1="0%" x2="66.7%" y2="100%"><stop offset="20%" stop-color="#6d4a30" stop-opacity="1"></stop><stop offset="80%" stop-color="#6d4a30" stop-opacity="1"></stop></linearGradient></defs><g transform="translate(900, 0)"><path d="M0 216.3C-22.6 197.9 -45.1 179.5 -70.4 170C-95.7 160.5 -123.7 159.9 -147.1 147.1C-170.4 134.3 -189.1 109.3 -199.9 82.8C-210.6 56.2 -213.5 28.1 -216.3 0L0 0Z" fill="#977255"></path></g><g transform="translate(0, 600)"><path d="M0 -216.3C30.4 -215.7 60.8 -215 82.8 -199.9C104.8 -184.7 118.3 -155.1 132.2 -132.2C146.2 -109.4 160.5 -93.2 174.6 -72.3C188.7 -51.4 202.5 -25.7 216.3 0L0 0Z" fill="#977255"></path></g></svg>