<svg id="visual" viewBox="0 0 900 600" width="900" height="600" xmlns="http://www.w3.org/2000/svg" xmlns:xlink="http://www.w3.org/1999/xlink" version="1.1"><rect x="0" y="0" width="900" height="600" fill="#000000"></rect><defs><linearGradient id="grad1_0" x1="33.3%" y1="0%" x2="100%" y2="100%"><stop offset="20%" stop-color="#000000" stop-opacity="1"></stop><stop offset="80%" stop-color="#000000" stop-opacity="1"></stop></linearGradient></defs><defs><linearGradient id="grad2_0" x1="0%" y1="0%" x2="66.7%" y2="100%"><stop offset="20%" stop-color="#000000" stop-opacity="1"></stop><stop offset="80%" stop-color="#000000" stop-opacity="1"></stop></linearGradient></defs><g transform="translate(900, 0)"><path d="M0 189.3C-25 187 -50 184.7 -72.4 174.9C-94.9 165 -114.7 147.6 -128 128C-141.3 108.4 -147.9 86.7 -157.1 65.1C-166.2 43.4 -177.7 21.7 -189.3 0L0 0Z" fill="#4f4f4f"></path></g><g transform="translate(0, 600)"><path d="M0 -189.3C24.9 -186.7 49.7 -184 72.4 -174.9C95.2 -165.7 115.7 -150 131.5 -131.5C147.3 -113 158.4 -91.7 167.2 -69.3C176.1 -46.9 182.7 -23.4 189.3 0L0 0Z" fill="#4f4f4f"></path></g></svg>